<mxfile host="app.diagrams.net" modified="2024-04-23T16:50:26.125Z" agent="Mozilla/5.0 (Windows NT 10.0; Win64; x64) AppleWebKit/537.36 (KHTML, like Gecko) Chrome/121.0.0.0 Safari/537.36" etag="zoZYs7c-3vb3ZcG_ty_a" version="24.2.7" type="github">
  <diagram name="Page-1" id="znhg0SCUUhbqK9GvKvF4">
    <mxGraphModel dx="1400" dy="743" grid="1" gridSize="10" guides="1" tooltips="1" connect="1" arrows="1" fold="1" page="1" pageScale="1" pageWidth="850" pageHeight="1100" math="0" shadow="0">
      <root>
        <mxCell id="0" />
        <mxCell id="1" parent="0" />
        <mxCell id="8c7B7hxSat0-A_cdlG8Q-35" style="edgeStyle=orthogonalEdgeStyle;rounded=0;orthogonalLoop=1;jettySize=auto;html=1;exitX=0.5;exitY=1;exitDx=0;exitDy=0;entryX=0.5;entryY=0;entryDx=0;entryDy=0;" edge="1" parent="1" source="8c7B7hxSat0-A_cdlG8Q-1" target="8c7B7hxSat0-A_cdlG8Q-34">
          <mxGeometry relative="1" as="geometry" />
        </mxCell>
        <mxCell id="8c7B7hxSat0-A_cdlG8Q-1" value="&lt;b&gt;Home&lt;/b&gt;" style="whiteSpace=wrap;html=1;aspect=fixed;strokeWidth=2;" vertex="1" parent="1">
          <mxGeometry x="160" y="320" width="80" height="80" as="geometry" />
        </mxCell>
        <mxCell id="8c7B7hxSat0-A_cdlG8Q-28" style="edgeStyle=orthogonalEdgeStyle;rounded=0;orthogonalLoop=1;jettySize=auto;html=1;exitX=0.5;exitY=1;exitDx=0;exitDy=0;entryX=0.75;entryY=0;entryDx=0;entryDy=0;" edge="1" parent="1" source="8c7B7hxSat0-A_cdlG8Q-2" target="8c7B7hxSat0-A_cdlG8Q-31">
          <mxGeometry relative="1" as="geometry">
            <mxPoint x="640" y="160" as="targetPoint" />
          </mxGeometry>
        </mxCell>
        <mxCell id="8c7B7hxSat0-A_cdlG8Q-2" value="&lt;b&gt;&lt;font style=&quot;font-size: 14px;&quot;&gt;Hotel User&lt;/font&gt;&lt;/b&gt;" style="whiteSpace=wrap;html=1;aspect=fixed;strokeWidth=3;" vertex="1" parent="1">
          <mxGeometry x="600" y="40" width="80" height="80" as="geometry" />
        </mxCell>
        <mxCell id="8c7B7hxSat0-A_cdlG8Q-27" style="edgeStyle=orthogonalEdgeStyle;rounded=0;orthogonalLoop=1;jettySize=auto;html=1;exitX=0.5;exitY=1;exitDx=0;exitDy=0;entryX=0.25;entryY=0;entryDx=0;entryDy=0;" edge="1" parent="1" source="8c7B7hxSat0-A_cdlG8Q-3" target="8c7B7hxSat0-A_cdlG8Q-31">
          <mxGeometry relative="1" as="geometry">
            <mxPoint x="440" y="140" as="targetPoint" />
            <Array as="points">
              <mxPoint x="440" y="140" />
              <mxPoint x="520" y="140" />
            </Array>
          </mxGeometry>
        </mxCell>
        <mxCell id="8c7B7hxSat0-A_cdlG8Q-3" value="&lt;font style=&quot;font-size: 14px;&quot;&gt;&lt;b&gt;Orphanage User&lt;/b&gt;&lt;/font&gt;" style="whiteSpace=wrap;html=1;aspect=fixed;strokeWidth=3;" vertex="1" parent="1">
          <mxGeometry x="400" y="40" width="80" height="80" as="geometry" />
        </mxCell>
        <mxCell id="8c7B7hxSat0-A_cdlG8Q-26" style="edgeStyle=orthogonalEdgeStyle;rounded=0;orthogonalLoop=1;jettySize=auto;html=1;exitX=0.5;exitY=1;exitDx=0;exitDy=0;entryX=0.5;entryY=0;entryDx=0;entryDy=0;" edge="1" parent="1" source="8c7B7hxSat0-A_cdlG8Q-4" target="8c7B7hxSat0-A_cdlG8Q-53">
          <mxGeometry relative="1" as="geometry">
            <mxPoint x="240" y="200" as="targetPoint" />
          </mxGeometry>
        </mxCell>
        <mxCell id="8c7B7hxSat0-A_cdlG8Q-4" value="&lt;b&gt;&lt;font style=&quot;font-size: 14px;&quot;&gt;Admin&lt;/font&gt;&lt;/b&gt;" style="whiteSpace=wrap;html=1;aspect=fixed;strokeWidth=3;" vertex="1" parent="1">
          <mxGeometry x="200" y="40" width="80" height="80" as="geometry" />
        </mxCell>
        <mxCell id="8c7B7hxSat0-A_cdlG8Q-36" style="edgeStyle=orthogonalEdgeStyle;rounded=0;orthogonalLoop=1;jettySize=auto;html=1;exitX=0.25;exitY=1;exitDx=0;exitDy=0;entryX=0.5;entryY=0;entryDx=0;entryDy=0;" edge="1" parent="1" source="8c7B7hxSat0-A_cdlG8Q-5" target="8c7B7hxSat0-A_cdlG8Q-10">
          <mxGeometry relative="1" as="geometry">
            <Array as="points">
              <mxPoint x="340" y="420" />
              <mxPoint x="240" y="420" />
            </Array>
          </mxGeometry>
        </mxCell>
        <mxCell id="8c7B7hxSat0-A_cdlG8Q-37" style="edgeStyle=orthogonalEdgeStyle;rounded=0;orthogonalLoop=1;jettySize=auto;html=1;exitX=0.5;exitY=1;exitDx=0;exitDy=0;" edge="1" parent="1" source="8c7B7hxSat0-A_cdlG8Q-5" target="8c7B7hxSat0-A_cdlG8Q-9">
          <mxGeometry relative="1" as="geometry" />
        </mxCell>
        <mxCell id="8c7B7hxSat0-A_cdlG8Q-38" style="edgeStyle=orthogonalEdgeStyle;rounded=0;orthogonalLoop=1;jettySize=auto;html=1;exitX=0.75;exitY=1;exitDx=0;exitDy=0;entryX=0.5;entryY=0;entryDx=0;entryDy=0;" edge="1" parent="1" source="8c7B7hxSat0-A_cdlG8Q-5" target="8c7B7hxSat0-A_cdlG8Q-8">
          <mxGeometry relative="1" as="geometry" />
        </mxCell>
        <mxCell id="8c7B7hxSat0-A_cdlG8Q-5" value="&lt;b&gt;Requests&lt;/b&gt;" style="whiteSpace=wrap;html=1;aspect=fixed;strokeWidth=2;" vertex="1" parent="1">
          <mxGeometry x="320" y="320" width="80" height="80" as="geometry" />
        </mxCell>
        <mxCell id="8c7B7hxSat0-A_cdlG8Q-6" value="&lt;b&gt;History&lt;/b&gt;" style="whiteSpace=wrap;html=1;aspect=fixed;strokeWidth=2;" vertex="1" parent="1">
          <mxGeometry x="480" y="320" width="80" height="80" as="geometry" />
        </mxCell>
        <mxCell id="8c7B7hxSat0-A_cdlG8Q-39" style="edgeStyle=orthogonalEdgeStyle;rounded=0;orthogonalLoop=1;jettySize=auto;html=1;exitX=0.75;exitY=1;exitDx=0;exitDy=0;entryX=0.5;entryY=0;entryDx=0;entryDy=0;" edge="1" parent="1" source="8c7B7hxSat0-A_cdlG8Q-7" target="8c7B7hxSat0-A_cdlG8Q-13">
          <mxGeometry relative="1" as="geometry" />
        </mxCell>
        <mxCell id="8c7B7hxSat0-A_cdlG8Q-40" style="edgeStyle=orthogonalEdgeStyle;rounded=0;orthogonalLoop=1;jettySize=auto;html=1;exitX=0.25;exitY=1;exitDx=0;exitDy=0;entryX=0.5;entryY=0;entryDx=0;entryDy=0;" edge="1" parent="1" source="8c7B7hxSat0-A_cdlG8Q-7" target="8c7B7hxSat0-A_cdlG8Q-14">
          <mxGeometry relative="1" as="geometry" />
        </mxCell>
        <mxCell id="8c7B7hxSat0-A_cdlG8Q-7" value="&lt;b&gt;Profile&lt;/b&gt;" style="whiteSpace=wrap;html=1;aspect=fixed;strokeWidth=2;" vertex="1" parent="1">
          <mxGeometry x="640" y="320" width="80" height="80" as="geometry" />
        </mxCell>
        <mxCell id="8c7B7hxSat0-A_cdlG8Q-51" style="edgeStyle=orthogonalEdgeStyle;rounded=0;orthogonalLoop=1;jettySize=auto;html=1;exitX=1;exitY=0.5;exitDx=0;exitDy=0;entryX=0.25;entryY=1;entryDx=0;entryDy=0;" edge="1" parent="1" source="8c7B7hxSat0-A_cdlG8Q-8" target="8c7B7hxSat0-A_cdlG8Q-6">
          <mxGeometry relative="1" as="geometry" />
        </mxCell>
        <mxCell id="8c7B7hxSat0-A_cdlG8Q-64" style="edgeStyle=orthogonalEdgeStyle;rounded=0;orthogonalLoop=1;jettySize=auto;html=1;exitX=0.5;exitY=1;exitDx=0;exitDy=0;entryX=0.5;entryY=0;entryDx=0;entryDy=0;strokeWidth=2;" edge="1" parent="1" source="8c7B7hxSat0-A_cdlG8Q-8" target="8c7B7hxSat0-A_cdlG8Q-55">
          <mxGeometry relative="1" as="geometry" />
        </mxCell>
        <mxCell id="8c7B7hxSat0-A_cdlG8Q-8" value="Declines Food Request" style="whiteSpace=wrap;html=1;aspect=fixed;" vertex="1" parent="1">
          <mxGeometry x="400" y="480" width="80" height="80" as="geometry" />
        </mxCell>
        <mxCell id="8c7B7hxSat0-A_cdlG8Q-52" style="edgeStyle=orthogonalEdgeStyle;rounded=0;orthogonalLoop=1;jettySize=auto;html=1;exitX=0.5;exitY=1;exitDx=0;exitDy=0;entryX=0.75;entryY=0;entryDx=0;entryDy=0;" edge="1" parent="1" source="8c7B7hxSat0-A_cdlG8Q-9" target="8c7B7hxSat0-A_cdlG8Q-46">
          <mxGeometry relative="1" as="geometry" />
        </mxCell>
        <mxCell id="8c7B7hxSat0-A_cdlG8Q-9" value="Accepts Food Request" style="whiteSpace=wrap;html=1;aspect=fixed;" vertex="1" parent="1">
          <mxGeometry x="300" y="480" width="80" height="80" as="geometry" />
        </mxCell>
        <mxCell id="8c7B7hxSat0-A_cdlG8Q-47" style="edgeStyle=orthogonalEdgeStyle;rounded=0;orthogonalLoop=1;jettySize=auto;html=1;exitX=0.5;exitY=1;exitDx=0;exitDy=0;entryX=0.5;entryY=0;entryDx=0;entryDy=0;" edge="1" parent="1" source="8c7B7hxSat0-A_cdlG8Q-10" target="8c7B7hxSat0-A_cdlG8Q-46">
          <mxGeometry relative="1" as="geometry" />
        </mxCell>
        <mxCell id="8c7B7hxSat0-A_cdlG8Q-48" style="edgeStyle=orthogonalEdgeStyle;rounded=0;orthogonalLoop=1;jettySize=auto;html=1;exitX=0.5;exitY=1;exitDx=0;exitDy=0;entryX=0.5;entryY=0;entryDx=0;entryDy=0;" edge="1" parent="1" source="8c7B7hxSat0-A_cdlG8Q-10" target="8c7B7hxSat0-A_cdlG8Q-45">
          <mxGeometry relative="1" as="geometry" />
        </mxCell>
        <mxCell id="8c7B7hxSat0-A_cdlG8Q-65" style="edgeStyle=orthogonalEdgeStyle;rounded=0;orthogonalLoop=1;jettySize=auto;html=1;exitX=0;exitY=0.5;exitDx=0;exitDy=0;entryX=0;entryY=0.7;entryDx=0;entryDy=0;strokeWidth=2;" edge="1" parent="1" source="8c7B7hxSat0-A_cdlG8Q-10" target="8c7B7hxSat0-A_cdlG8Q-55">
          <mxGeometry relative="1" as="geometry">
            <Array as="points">
              <mxPoint x="170" y="520" />
              <mxPoint x="170" y="580" />
              <mxPoint x="120" y="580" />
              <mxPoint x="120" y="872" />
            </Array>
          </mxGeometry>
        </mxCell>
        <mxCell id="8c7B7hxSat0-A_cdlG8Q-10" value="Create Food Request" style="whiteSpace=wrap;html=1;aspect=fixed;" vertex="1" parent="1">
          <mxGeometry x="200" y="480" width="80" height="80" as="geometry" />
        </mxCell>
        <mxCell id="8c7B7hxSat0-A_cdlG8Q-29" style="edgeStyle=orthogonalEdgeStyle;rounded=0;orthogonalLoop=1;jettySize=auto;html=1;exitX=1;exitY=0.25;exitDx=0;exitDy=0;entryX=0.75;entryY=0;entryDx=0;entryDy=0;" edge="1" parent="1" source="8c7B7hxSat0-A_cdlG8Q-12" target="8c7B7hxSat0-A_cdlG8Q-15">
          <mxGeometry relative="1" as="geometry" />
        </mxCell>
        <mxCell id="8c7B7hxSat0-A_cdlG8Q-33" style="edgeStyle=orthogonalEdgeStyle;rounded=0;orthogonalLoop=1;jettySize=auto;html=1;exitX=0.5;exitY=1;exitDx=0;exitDy=0;" edge="1" parent="1" source="8c7B7hxSat0-A_cdlG8Q-12">
          <mxGeometry relative="1" as="geometry">
            <mxPoint x="540" y="280" as="targetPoint" />
          </mxGeometry>
        </mxCell>
        <mxCell id="8c7B7hxSat0-A_cdlG8Q-12" value="Registration" style="rounded=0;whiteSpace=wrap;html=1;dashed=1;strokeWidth=2;" vertex="1" parent="1">
          <mxGeometry x="480" y="220" width="120" height="40" as="geometry" />
        </mxCell>
        <mxCell id="8c7B7hxSat0-A_cdlG8Q-43" style="edgeStyle=orthogonalEdgeStyle;rounded=0;orthogonalLoop=1;jettySize=auto;html=1;exitX=0.5;exitY=1;exitDx=0;exitDy=0;" edge="1" parent="1" source="8c7B7hxSat0-A_cdlG8Q-13">
          <mxGeometry relative="1" as="geometry">
            <mxPoint x="700" y="560" as="targetPoint" />
          </mxGeometry>
        </mxCell>
        <mxCell id="8c7B7hxSat0-A_cdlG8Q-13" value="Admin Dashboard" style="whiteSpace=wrap;html=1;aspect=fixed;strokeWidth=2;" vertex="1" parent="1">
          <mxGeometry x="680" y="440" width="80" height="80" as="geometry" />
        </mxCell>
        <mxCell id="8c7B7hxSat0-A_cdlG8Q-14" value="User Details" style="whiteSpace=wrap;html=1;aspect=fixed;" vertex="1" parent="1">
          <mxGeometry x="580" y="440" width="80" height="80" as="geometry" />
        </mxCell>
        <mxCell id="8c7B7hxSat0-A_cdlG8Q-30" style="edgeStyle=orthogonalEdgeStyle;rounded=0;orthogonalLoop=1;jettySize=auto;html=1;exitX=0.5;exitY=0;exitDx=0;exitDy=0;entryX=1;entryY=0.75;entryDx=0;entryDy=0;" edge="1" parent="1" source="8c7B7hxSat0-A_cdlG8Q-15" target="8c7B7hxSat0-A_cdlG8Q-12">
          <mxGeometry relative="1" as="geometry" />
        </mxCell>
        <mxCell id="8c7B7hxSat0-A_cdlG8Q-57" style="edgeStyle=orthogonalEdgeStyle;rounded=0;orthogonalLoop=1;jettySize=auto;html=1;exitX=0.5;exitY=1;exitDx=0;exitDy=0;entryX=1;entryY=0.5;entryDx=0;entryDy=0;strokeWidth=2;" edge="1" parent="1" source="8c7B7hxSat0-A_cdlG8Q-15" target="8c7B7hxSat0-A_cdlG8Q-55">
          <mxGeometry relative="1" as="geometry" />
        </mxCell>
        <mxCell id="8c7B7hxSat0-A_cdlG8Q-15" value="Admin Approval" style="whiteSpace=wrap;html=1;aspect=fixed;strokeWidth=2;" vertex="1" parent="1">
          <mxGeometry x="760" y="600" width="80" height="80" as="geometry" />
        </mxCell>
        <mxCell id="8c7B7hxSat0-A_cdlG8Q-16" value="Active User details" style="whiteSpace=wrap;html=1;aspect=fixed;" vertex="1" parent="1">
          <mxGeometry x="560" y="600" width="80" height="80" as="geometry" />
        </mxCell>
        <mxCell id="8c7B7hxSat0-A_cdlG8Q-17" value="Food Request details" style="whiteSpace=wrap;html=1;aspect=fixed;" vertex="1" parent="1">
          <mxGeometry x="660" y="600" width="80" height="80" as="geometry" />
        </mxCell>
        <mxCell id="8c7B7hxSat0-A_cdlG8Q-24" value="" style="endArrow=classic;startArrow=classic;html=1;rounded=0;exitX=0.5;exitY=0;exitDx=0;exitDy=0;entryX=0.5;entryY=0;entryDx=0;entryDy=0;" edge="1" parent="1" source="8c7B7hxSat0-A_cdlG8Q-1" target="8c7B7hxSat0-A_cdlG8Q-7">
          <mxGeometry width="50" height="50" relative="1" as="geometry">
            <mxPoint x="370" y="230" as="sourcePoint" />
            <mxPoint x="420" y="180" as="targetPoint" />
            <Array as="points">
              <mxPoint x="200" y="280" />
              <mxPoint x="680" y="280" />
            </Array>
          </mxGeometry>
        </mxCell>
        <mxCell id="8c7B7hxSat0-A_cdlG8Q-25" value="" style="endArrow=classic;startArrow=classic;html=1;rounded=0;exitX=0.5;exitY=0;exitDx=0;exitDy=0;entryX=0.5;entryY=0;entryDx=0;entryDy=0;" edge="1" parent="1" source="8c7B7hxSat0-A_cdlG8Q-5" target="8c7B7hxSat0-A_cdlG8Q-6">
          <mxGeometry width="50" height="50" relative="1" as="geometry">
            <mxPoint x="400" y="240" as="sourcePoint" />
            <mxPoint x="490" y="230" as="targetPoint" />
            <Array as="points">
              <mxPoint x="360" y="280" />
              <mxPoint x="440" y="280" />
              <mxPoint x="520" y="280" />
            </Array>
          </mxGeometry>
        </mxCell>
        <mxCell id="8c7B7hxSat0-A_cdlG8Q-32" style="edgeStyle=orthogonalEdgeStyle;rounded=0;orthogonalLoop=1;jettySize=auto;html=1;exitX=0.5;exitY=1;exitDx=0;exitDy=0;entryX=0.5;entryY=0;entryDx=0;entryDy=0;" edge="1" parent="1" source="8c7B7hxSat0-A_cdlG8Q-31" target="8c7B7hxSat0-A_cdlG8Q-12">
          <mxGeometry relative="1" as="geometry" />
        </mxCell>
        <mxCell id="8c7B7hxSat0-A_cdlG8Q-31" value="Login" style="rounded=0;whiteSpace=wrap;html=1;" vertex="1" parent="1">
          <mxGeometry x="500" y="160" width="80" height="40" as="geometry" />
        </mxCell>
        <mxCell id="8c7B7hxSat0-A_cdlG8Q-34" value="About Food Bridge" style="whiteSpace=wrap;html=1;aspect=fixed;" vertex="1" parent="1">
          <mxGeometry x="80" y="480" width="80" height="80" as="geometry" />
        </mxCell>
        <mxCell id="8c7B7hxSat0-A_cdlG8Q-44" value="" style="endArrow=classic;html=1;rounded=0;entryX=0.5;entryY=0;entryDx=0;entryDy=0;" edge="1" parent="1" target="8c7B7hxSat0-A_cdlG8Q-17">
          <mxGeometry width="50" height="50" relative="1" as="geometry">
            <mxPoint x="700" y="560" as="sourcePoint" />
            <mxPoint x="520" y="640" as="targetPoint" />
            <Array as="points" />
          </mxGeometry>
        </mxCell>
        <mxCell id="8c7B7hxSat0-A_cdlG8Q-50" style="edgeStyle=orthogonalEdgeStyle;rounded=0;orthogonalLoop=1;jettySize=auto;html=1;exitX=0.5;exitY=1;exitDx=0;exitDy=0;entryX=0.75;entryY=1;entryDx=0;entryDy=0;" edge="1" parent="1" source="8c7B7hxSat0-A_cdlG8Q-45" target="8c7B7hxSat0-A_cdlG8Q-6">
          <mxGeometry relative="1" as="geometry" />
        </mxCell>
        <mxCell id="8c7B7hxSat0-A_cdlG8Q-63" style="edgeStyle=orthogonalEdgeStyle;rounded=0;orthogonalLoop=1;jettySize=auto;html=1;exitX=0.25;exitY=1;exitDx=0;exitDy=0;entryX=0;entryY=0.3;entryDx=0;entryDy=0;strokeWidth=2;" edge="1" parent="1" source="8c7B7hxSat0-A_cdlG8Q-45" target="8c7B7hxSat0-A_cdlG8Q-55">
          <mxGeometry relative="1" as="geometry" />
        </mxCell>
        <mxCell id="8c7B7hxSat0-A_cdlG8Q-45" value="Cancel" style="whiteSpace=wrap;html=1;aspect=fixed;" vertex="1" parent="1">
          <mxGeometry x="140" y="600" width="80" height="80" as="geometry" />
        </mxCell>
        <mxCell id="8c7B7hxSat0-A_cdlG8Q-49" style="edgeStyle=orthogonalEdgeStyle;rounded=0;orthogonalLoop=1;jettySize=auto;html=1;exitX=1;exitY=0.5;exitDx=0;exitDy=0;entryX=0.5;entryY=1;entryDx=0;entryDy=0;" edge="1" parent="1" source="8c7B7hxSat0-A_cdlG8Q-46" target="8c7B7hxSat0-A_cdlG8Q-6">
          <mxGeometry relative="1" as="geometry" />
        </mxCell>
        <mxCell id="8c7B7hxSat0-A_cdlG8Q-46" value="Completed" style="whiteSpace=wrap;html=1;aspect=fixed;" vertex="1" parent="1">
          <mxGeometry x="260" y="600" width="80" height="80" as="geometry" />
        </mxCell>
        <mxCell id="8c7B7hxSat0-A_cdlG8Q-54" style="edgeStyle=orthogonalEdgeStyle;rounded=0;orthogonalLoop=1;jettySize=auto;html=1;exitX=0.5;exitY=1;exitDx=0;exitDy=0;" edge="1" parent="1" source="8c7B7hxSat0-A_cdlG8Q-53">
          <mxGeometry relative="1" as="geometry">
            <mxPoint x="240" y="280" as="targetPoint" />
          </mxGeometry>
        </mxCell>
        <mxCell id="8c7B7hxSat0-A_cdlG8Q-53" value="Login" style="rounded=0;whiteSpace=wrap;html=1;" vertex="1" parent="1">
          <mxGeometry x="200" y="160" width="80" height="40" as="geometry" />
        </mxCell>
        <mxCell id="8c7B7hxSat0-A_cdlG8Q-66" style="edgeStyle=orthogonalEdgeStyle;rounded=0;orthogonalLoop=1;jettySize=auto;html=1;exitX=0.85;exitY=0.05;exitDx=0;exitDy=0;exitPerimeter=0;entryX=0.5;entryY=1;entryDx=0;entryDy=0;strokeWidth=2;" edge="1" parent="1" source="8c7B7hxSat0-A_cdlG8Q-55" target="8c7B7hxSat0-A_cdlG8Q-16">
          <mxGeometry relative="1" as="geometry" />
        </mxCell>
        <mxCell id="8c7B7hxSat0-A_cdlG8Q-67" style="edgeStyle=orthogonalEdgeStyle;rounded=0;orthogonalLoop=1;jettySize=auto;html=1;exitX=1;exitY=0.3;exitDx=0;exitDy=0;entryX=0.5;entryY=1;entryDx=0;entryDy=0;strokeWidth=2;" edge="1" parent="1" source="8c7B7hxSat0-A_cdlG8Q-55" target="8c7B7hxSat0-A_cdlG8Q-17">
          <mxGeometry relative="1" as="geometry" />
        </mxCell>
        <mxCell id="8c7B7hxSat0-A_cdlG8Q-55" value="&lt;b&gt;Firestore Cloud Data Base&lt;/b&gt;" style="shape=datastore;whiteSpace=wrap;html=1;strokeWidth=3;" vertex="1" parent="1">
          <mxGeometry x="320" y="760" width="300" height="160" as="geometry" />
        </mxCell>
        <mxCell id="8c7B7hxSat0-A_cdlG8Q-56" value="" style="endArrow=classic;startArrow=classic;html=1;rounded=0;exitX=0.5;exitY=0;exitDx=0;exitDy=0;entryX=0.25;entryY=0;entryDx=0;entryDy=0;" edge="1" parent="1" source="8c7B7hxSat0-A_cdlG8Q-16" target="8c7B7hxSat0-A_cdlG8Q-15">
          <mxGeometry width="50" height="50" relative="1" as="geometry">
            <mxPoint x="590" y="590" as="sourcePoint" />
            <mxPoint x="640" y="540" as="targetPoint" />
            <Array as="points">
              <mxPoint x="600" y="560" />
              <mxPoint x="680" y="560" />
              <mxPoint x="780" y="560" />
            </Array>
          </mxGeometry>
        </mxCell>
        <mxCell id="8c7B7hxSat0-A_cdlG8Q-58" value="New User details" style="text;html=1;align=center;verticalAlign=middle;whiteSpace=wrap;rounded=0;" vertex="1" parent="1">
          <mxGeometry x="740" y="760" width="60" height="30" as="geometry" />
        </mxCell>
        <mxCell id="8c7B7hxSat0-A_cdlG8Q-62" style="edgeStyle=orthogonalEdgeStyle;rounded=0;orthogonalLoop=1;jettySize=auto;html=1;exitX=0.5;exitY=1;exitDx=0;exitDy=0;entryX=0.15;entryY=0.05;entryDx=0;entryDy=0;entryPerimeter=0;strokeWidth=2;" edge="1" parent="1" source="8c7B7hxSat0-A_cdlG8Q-46" target="8c7B7hxSat0-A_cdlG8Q-55">
          <mxGeometry relative="1" as="geometry" />
        </mxCell>
        <mxCell id="8c7B7hxSat0-A_cdlG8Q-68" value="Send for Admin&amp;nbsp; Approval" style="text;html=1;align=center;verticalAlign=middle;whiteSpace=wrap;rounded=0;" vertex="1" parent="1">
          <mxGeometry x="660" y="210" width="140" height="20" as="geometry" />
        </mxCell>
        <mxCell id="8c7B7hxSat0-A_cdlG8Q-69" value="Request Cancelled" style="text;html=1;align=center;verticalAlign=middle;whiteSpace=wrap;rounded=0;" vertex="1" parent="1">
          <mxGeometry x="130" y="740" width="60" height="30" as="geometry" />
        </mxCell>
        <mxCell id="8c7B7hxSat0-A_cdlG8Q-70" value="New Request details" style="text;html=1;align=center;verticalAlign=middle;whiteSpace=wrap;rounded=0;" vertex="1" parent="1">
          <mxGeometry x="120" y="840" width="120" height="30" as="geometry" />
        </mxCell>
        <mxCell id="8c7B7hxSat0-A_cdlG8Q-72" value="" style="rounded=0;whiteSpace=wrap;html=1;fillColor=none;dashed=1;dashPattern=12 12;" vertex="1" parent="1">
          <mxGeometry x="80" y="20" width="760" height="120" as="geometry" />
        </mxCell>
        <mxCell id="8c7B7hxSat0-A_cdlG8Q-73" value="&lt;b&gt;&lt;font style=&quot;font-size: 14px;&quot;&gt;Users&lt;/font&gt;&lt;/b&gt;" style="text;html=1;align=center;verticalAlign=middle;whiteSpace=wrap;rounded=0;" vertex="1" parent="1">
          <mxGeometry x="20" y="40" width="60" height="30" as="geometry" />
        </mxCell>
        <mxCell id="8c7B7hxSat0-A_cdlG8Q-74" value="" style="rounded=0;whiteSpace=wrap;html=1;fillColor=none;dashed=1;dashPattern=12 12;" vertex="1" parent="1">
          <mxGeometry x="80" y="300" width="760" height="120" as="geometry" />
        </mxCell>
      </root>
    </mxGraphModel>
  </diagram>
</mxfile>
